{"glyphs":{":":{"x_min":0,"x_max":600,"ha":600,"o":"m 229 0 l 229 149 l 371 149 l 371 0 z m 229 381 l 229 530 l 371 530 l 371 381 z"},"$":{"x_min":0,"x_max":600,"ha":600,"o":"m 562 192 q 562 104 503 55 q 444 6 328 2 l 328 -83 l 274 -83 l 274 0 q 169 4 111 50 q 52 96 34 190 l 159 213 q 168 158 196 132 q 223 106 274 102 l 274 292 q 273 293 267 295 q 261 296 259 296 q 181 314 141 339 q 101 363 79 401 q 57 439 57 494 q 57 575 112 619 q 167 663 274 667 l 274 733 l 328 733 l 328 667 q 423 664 474 625 q 525 586 548 497 l 419 478 q 404 562 328 572 l 328 400 l 333 399 q 347 399 419 375 q 491 352 527 306 q 562 261 562 192 z m 274 574 q 185 567 185 496 q 185 474 192 460 q 200 446 214 436 q 229 426 274 412 z m 436 190 q 436 214 427 230 q 418 245 401 255 q 384 265 328 281 l 328 102 q 436 109 436 190 z"},"?":{"x_min":0,"x_max":600,"ha":600,"o":"m 543 481 q 543 450 532 423 q 521 397 501 374 q 480 351 406 297 q 341 250 338 198 l 208 198 q 211 249 237 288 q 263 328 310 361 q 365 398 385 423 q 405 447 405 476 q 405 513 375 536 q 346 559 297 559 q 248 559 215 530 q 181 501 175 454 l 36 459 q 49 559 118 614 q 186 669 295 669 q 409 669 476 618 q 543 567 543 481 z m 204 0 l 204 132 l 345 132 l 345 0 z"},"<":{"x_min":0,"x_max":600,"ha":600,"o":"m 49 252 l 49 409 l 551 600 l 551 489 l 144 330 l 551 172 l 551 61 z"},"'":{"x_min":0,"x_max":600,"ha":600,"o":"m 349 412 l 251 412 l 233 725 l 367 725 z"},"=":{"x_min":0,"x_max":600,"ha":600,"o":"m 49 411 l 49 520 l 551 520 l 551 411 z m 49 142 l 49 250 l 551 250 l 551 142 z"},"a":{"x_min":0,"x_max":600,"ha":600,"o":"m 214 -10 q 138 -10 95 32 q 52 74 52 149 q 52 231 103 274 q 154 317 255 318 l 364 320 l 364 347 q 364 397 347 423 q 330 449 292 449 q 256 449 240 431 q 223 414 219 375 l 76 381 q 102 538 298 538 q 396 538 449 490 q 501 441 501 348 l 501 156 q 501 112 511 95 q 521 78 545 78 q 561 78 575 81 l 575 7 q 563 4 553 1 q 543 -1 534 -2 q 524 -4 513 -5 q 502 -6 487 -6 q 436 -6 411 20 q 386 45 381 94 l 378 94 q 348 39 308 15 q 269 -10 214 -10 z m 364 245 l 299 244 q 255 243 235 235 q 215 227 205 209 q 195 191 195 160 q 195 86 253 86 q 301 86 333 123 q 364 161 364 218 z"},"L":{"x_min":0,"x_max":600,"ha":600,"o":"m 103 0 l 103 659 l 247 659 l 247 111 l 548 111 l 548 0 z"},"3":{"x_min":0,"x_max":600,"ha":600,"o":"m 549 184 q 549 91 483 40 q 417 -11 300 -11 q 188 -11 122 38 q 57 87 45 180 l 185 192 q 197 100 300 100 q 351 100 380 125 q 409 149 409 192 q 409 234 373 257 q 338 279 272 279 l 224 279 l 224 390 l 269 390 q 329 390 361 413 q 393 436 393 476 q 393 513 366 536 q 339 560 295 560 q 253 560 226 540 q 198 520 194 477 l 57 487 q 68 574 131 622 q 194 669 297 669 q 370 669 423 647 q 476 625 504 585 q 532 545 532 493 q 532 433 494 393 q 456 353 385 339 l 385 337 q 461 329 505 287 q 549 246 549 184 z"},";":{"x_min":0,"x_max":600,"ha":600,"o":"m 234 381 l 234 530 l 375 530 l 375 381 z m 159 -177 l 242 146 l 396 146 l 244 -177 z"},"J":{"x_min":0,"x_max":600,"ha":600,"o":"m 275 -10 q 180 -10 122 43 q 64 97 50 196 l 192 217 q 202 160 224 131 q 246 103 276 103 q 312 103 333 132 q 354 161 354 214 l 354 546 l 207 546 l 207 659 l 498 659 l 498 218 q 498 111 438 51 q 379 -10 275 -10 z"},"V":{"x_min":0,"x_max":600,"ha":600,"o":"m 374 0 l 228 0 l 1 659 l 152 659 l 266 280 q 279 237 302 150 l 312 192 l 337 280 l 450 659 l 599 659 z"},"\"":{"x_min":0,"x_max":600,"ha":600,"o":"m 460 412 l 363 412 l 345 725 l 479 725 z m 237 412 l 140 412 l 122 725 l 255 725 z"},"7":{"x_min":0,"x_max":600,"ha":600,"o":"m 533 550 q 409 380 358 252 q 307 125 307 0 l 164 0 q 164 127 222 260 q 281 394 406 546 l 64 546 l 64 659 l 533 659 z"},"S":{"x_min":0,"x_max":600,"ha":600,"o":"m 569 191 q 569 97 497 44 q 426 -10 298 -10 q 184 -10 111 39 q 39 87 19 179 l 158 197 q 169 151 205 125 q 240 98 302 98 q 367 98 398 119 q 429 139 429 183 q 429 215 401 237 q 374 259 322 272 q 217 297 174 316 q 130 335 104 358 q 79 382 65 413 q 51 445 51 484 q 51 569 119 619 q 188 669 300 669 q 410 669 471 626 q 533 583 551 492 l 411 478 q 390 567 297 567 q 246 567 218 548 q 191 528 191 492 q 191 468 204 452 q 217 437 240 426 q 263 415 333 396 q 424 374 474 346 q 523 319 546 280 q 569 241 569 191 z"},"}":{"x_min":0,"x_max":600,"ha":600,"o":"m 90 -208 l 90 -114 l 182 -114 q 226 -114 246 -89 q 266 -64 266 -12 l 266 135 q 266 180 293 214 q 320 247 367 258 l 367 260 q 321 270 293 303 q 266 337 266 383 l 266 530 q 266 581 246 606 q 226 632 182 632 l 90 632 l 90 725 l 250 725 q 317 725 355 687 q 394 650 394 579 l 394 418 q 394 363 420 336 q 446 308 505 306 l 505 210 q 447 209 420 182 q 394 154 394 99 l 394 -62 q 394 -130 354 -169 q 315 -208 250 -208 z"},"Z":{"x_min":0,"x_max":600,"ha":600,"o":"m 556 0 l 42 0 l 42 102 l 370 546 l 80 546 l 80 659 l 536 659 l 536 559 l 208 113 l 556 113 z"},"x":{"x_min":0,"x_max":600,"ha":600,"o":"m 427 0 l 299 191 l 170 0 l 24 0 l 222 273 l 33 528 l 181 528 l 299 355 l 416 528 l 565 528 l 376 274 l 576 0 z"},")":{"x_min":0,"x_max":600,"ha":600,"o":"m 150 -208 q 228 -93 262 16 q 297 125 297 259 q 297 393 262 504 q 227 614 150 725 l 287 725 q 364 614 398 504 q 432 394 432 259 q 432 124 398 14 q 364 -96 287 -208 z"},"&":{"x_min":0,"x_max":600,"ha":600,"o":"m 12 180 q 12 242 51 295 q 90 348 159 380 q 125 450 125 511 q 125 583 170 623 q 216 663 301 663 q 375 663 420 625 q 465 587 465 524 q 465 474 426 432 q 387 389 287 343 q 333 262 392 195 q 428 268 444 354 l 544 340 q 523 225 468 128 q 510 92 551 92 q 579 92 596 101 l 596 5 q 578 -5 550 -5 q 472 -5 403 51 q 323 -9 228 -9 q 125 -9 68 40 q 12 89 12 180 z m 328 117 q 250 203 200 292 q 167 273 148 245 q 130 216 130 182 q 130 134 157 107 q 184 80 233 80 q 284 80 328 117 z m 361 523 q 361 550 346 567 q 331 583 300 583 q 264 583 245 563 q 226 543 226 510 q 226 467 251 419 q 300 442 320 457 q 339 471 350 487 q 361 503 361 523 z"},"_":{"x_min":0,"x_max":600,"ha":600,"o":"m -2 -107 l -2 -61 l 602 -61 l 602 -107 z"},"v":{"x_min":0,"x_max":600,"ha":600,"o":"m 378 0 l 214 0 l 15 528 l 160 528 l 262 225 q 270 200 297 103 q 300 114 315 165 q 330 215 439 528 l 583 528 z"},"O":{"x_min":0,"x_max":600,"ha":600,"o":"m 565 332 q 565 163 497 77 q 428 -10 300 -10 q 172 -10 104 77 q 35 163 35 332 q 35 500 104 584 q 172 669 300 669 q 428 669 497 584 q 565 500 565 332 z m 419 332 q 419 556 300 556 q 181 556 181 332 q 181 219 211 161 q 241 104 300 104 q 359 104 389 161 q 419 219 419 332 z"},"(":{"x_min":0,"x_max":600,"ha":600,"o":"m 313 -208 q 236 -97 202 13 q 168 123 168 259 q 168 396 202 505 q 236 615 313 725 l 450 725 q 373 613 338 503 q 303 393 303 259 q 303 125 338 16 q 373 -94 450 -208 z"},"C":{"x_min":0,"x_max":600,"ha":600,"o":"m 186 333 q 186 223 220 163 q 254 104 322 104 q 401 104 439 223 l 572 197 q 507 -10 320 -10 q 183 -10 111 77 q 39 165 39 333 q 39 669 316 669 q 407 669 469 621 q 530 573 559 479 l 426 447 q 412 499 383 527 q 355 556 318 556 q 186 556 186 333 z"},"W":{"x_min":0,"x_max":600,"ha":600,"o":"m 497 0 l 376 0 l 345 130 q 320 223 301 311 l 284 239 l 262 152 l 224 0 l 103 0 l 0 659 l 126 659 l 170 319 q 176 272 178 189 l 185 227 l 205 309 l 253 474 l 348 474 l 396 309 q 403 287 407 265 q 412 244 423 189 l 424 203 q 427 281 432 319 l 473 659 l 600 659 z"},"A":{"x_min":0,"x_max":600,"ha":600,"o":"m 600 0 l 457 0 l 412 161 l 189 161 l 144 0 l 0 0 l 216 659 l 384 659 z m 300 570 q 296 549 286 509 q 275 468 219 270 l 381 270 q 324 471 314 510 q 304 550 300 570 z"},"f":{"x_min":0,"x_max":600,"ha":600,"o":"m 319 436 l 319 0 l 182 0 l 182 436 l 57 436 l 57 528 l 182 528 l 182 569 q 182 654 236 697 q 289 739 388 739 q 466 739 548 726 l 548 636 q 475 645 412 645 q 364 645 342 625 q 319 605 319 556 l 319 528 l 535 528 l 535 436 z"},"Q":{"x_min":0,"x_max":600,"ha":600,"o":"m 565 332 q 565 191 518 108 q 471 25 380 0 q 397 -47 428 -69 q 459 -91 510 -91 q 532 -91 570 -84 l 570 -183 q 509 -197 452 -197 q 372 -197 320 -152 q 268 -106 235 -3 q 138 17 86 101 q 35 185 35 332 q 35 500 104 584 q 172 669 300 669 q 428 669 497 584 q 565 500 565 332 z m 419 332 q 419 556 300 556 q 181 556 181 332 q 181 219 211 161 q 241 104 300 104 q 359 104 389 161 q 419 219 419 332 z"},"w":{"x_min":0,"x_max":600,"ha":600,"o":"m 502 0 l 383 0 l 313 230 q 301 269 300 280 q 299 275 294 257 q 290 239 213 0 l 95 0 l 5 528 l 117 528 l 157 232 q 167 158 167 122 l 176 158 l 253 399 l 347 399 l 416 177 q 423 152 430 122 q 430 152 435 191 q 439 231 484 528 l 595 528 z"},"-":{"x_min":0,"x_max":600,"ha":600,"o":"m 158 200 l 158 319 l 441 319 l 441 200 z"},"E":{"x_min":0,"x_max":600,"ha":600,"o":"m 67 0 l 67 659 l 540 659 l 540 547 l 211 547 l 211 389 l 510 389 l 510 278 l 211 278 l 211 111 l 560 111 l 560 0 z"},"s":{"x_min":0,"x_max":600,"ha":600,"o":"m 539 154 q 539 78 476 34 q 414 -10 303 -10 q 194 -10 136 25 q 78 59 59 132 l 180 150 q 190 112 215 97 q 240 81 303 81 q 360 81 387 96 q 413 110 413 142 q 413 167 392 182 q 371 197 320 207 q 204 230 163 250 q 123 270 101 301 q 80 333 80 378 q 80 454 138 496 q 197 539 304 539 q 398 539 455 502 q 513 465 527 396 l 405 383 q 399 416 376 431 q 354 447 304 447 q 255 447 230 435 q 206 422 206 393 q 206 370 225 357 q 244 343 288 334 q 350 322 398 308 q 446 295 475 276 q 504 258 522 229 q 539 200 539 154 z"},">":{"x_min":0,"x_max":600,"ha":600,"o":"m 49 61 l 49 172 l 456 330 l 49 489 l 49 600 l 551 409 l 551 252 z"},"l":{"x_min":0,"x_max":600,"ha":600,"o":"m 454 94 l 560 93 l 560 0 l 390 2 q 341 11 296 45 q 275 62 263 101 q 251 134 250 184 l 250 632 l 109 632 l 109 725 l 388 725 l 388 168 q 389 126 399 114 q 412 99 454 94 z m 457 93 z m 388 168 z m 392 0 z m 250 184 z"},"8":{"x_min":0,"x_max":600,"ha":600,"o":"m 547 187 q 547 95 482 42 q 417 -10 300 -10 q 185 -10 119 42 q 53 94 53 186 q 53 248 92 292 q 131 335 193 345 l 193 347 q 138 359 104 400 q 69 440 69 494 q 69 574 130 622 q 191 669 298 669 q 409 669 469 623 q 530 577 530 493 q 530 441 495 400 q 460 359 405 348 l 405 346 q 471 335 509 293 q 547 250 547 187 z m 389 486 q 389 573 298 573 q 209 573 209 486 q 209 441 233 418 q 256 395 299 395 q 389 395 389 486 z m 405 198 q 405 247 378 273 q 351 298 297 298 q 248 298 221 271 q 194 244 194 196 q 194 87 301 87 q 353 87 379 113 q 405 140 405 198 z"},"\\":{"x_min":0,"x_max":600,"ha":600,"o":"m 443 -10 l 44 725 l 156 725 l 557 -10 z"},"e":{"x_min":0,"x_max":600,"ha":600,"o":"m 306 -10 q 183 -10 116 63 q 49 135 49 267 q 49 354 80 415 q 112 476 170 507 q 228 538 308 538 q 423 538 487 461 q 551 384 551 242 l 551 238 l 193 238 q 193 166 225 124 q 257 82 312 82 q 349 82 376 97 q 404 113 414 145 l 543 134 q 517 65 454 28 q 392 -10 306 -10 z m 306 452 q 255 452 226 418 q 196 384 194 324 l 418 324 q 415 382 385 417 q 355 452 306 452 z"},"b":{"x_min":0,"x_max":600,"ha":600,"o":"m 68 0 q 72 66 72 115 l 72 725 l 209 725 l 209 532 l 208 445 l 209 445 q 229 490 270 514 q 310 539 364 539 q 455 539 504 467 q 553 395 553 264 q 553 140 501 65 q 449 -10 360 -10 q 309 -10 271 14 q 232 39 210 86 l 208 86 q 208 70 206 41 q 204 13 201 0 z m 208 267 q 208 208 220 168 q 233 127 257 106 q 281 84 312 84 q 358 84 384 129 q 410 174 410 264 q 410 353 385 399 q 359 445 311 445 q 263 445 235 398 q 208 352 208 267 z"},"%":{"x_min":0,"x_max":600,"ha":600,"o":"m 115 0 l 30 0 l 485 661 l 571 661 z m 142 665 q 280 665 280 500 q 280 419 245 376 q 209 334 140 334 q 71 334 36 376 q 0 418 0 500 q 0 582 34 623 q 68 665 142 665 z m 194 500 q 194 553 181 576 q 168 599 141 599 q 114 599 100 576 q 86 554 86 500 q 86 448 100 425 q 114 402 141 402 q 194 402 194 500 z m 462 325 q 601 325 601 161 q 601 79 565 37 q 529 -6 460 -6 q 392 -6 356 36 q 320 78 320 161 q 320 242 354 283 q 389 325 462 325 z m 515 161 q 515 213 502 236 q 489 259 461 259 q 434 259 420 237 q 406 214 406 161 q 406 108 420 85 q 435 62 461 62 q 515 62 515 161 z"},"m":{"x_min":0,"x_max":600,"ha":600,"o":"m 245 0 l 245 321 q 245 394 236 422 q 227 451 202 451 q 177 451 163 405 q 148 359 148 284 l 148 0 l 37 0 l 37 416 q 37 508 34 528 l 136 528 l 139 466 l 139 443 l 140 443 q 156 493 182 515 q 207 538 245 538 q 288 538 309 515 q 331 491 340 442 l 341 442 q 360 494 387 516 q 415 538 456 538 q 514 538 539 496 q 563 454 563 352 l 563 0 l 452 0 l 452 321 q 452 394 443 422 q 434 451 410 451 q 385 451 370 411 q 356 372 356 293 l 356 0 z"},"#":{"x_min":0,"x_max":600,"ha":600,"o":"m 464 408 l 431 250 l 546 250 l 546 177 l 415 177 l 376 0 l 301 0 l 339 177 l 188 177 l 150 0 l 76 0 l 114 177 l 29 177 l 29 250 l 129 250 l 164 408 l 53 408 l 53 480 l 179 480 l 218 659 l 292 659 l 254 480 l 405 480 l 443 659 l 518 659 l 480 480 l 570 480 l 570 408 z m 238 408 l 204 250 l 355 250 l 389 408 z"},",":{"x_min":0,"x_max":600,"ha":600,"o":"m 126 -177 l 208 146 l 362 146 l 210 -177 z"},"n":{"x_min":0,"x_max":600,"ha":600,"o":"m 402 0 l 402 302 q 402 371 384 403 q 365 436 319 436 q 268 436 238 392 q 207 349 207 283 l 207 0 l 70 0 l 70 410 q 70 453 69 480 q 67 507 66 528 l 197 528 q 198 519 201 479 q 203 438 203 423 l 205 423 q 233 484 275 511 q 317 539 375 539 q 539 539 539 335 l 539 0 z"},"h":{"x_min":0,"x_max":600,"ha":600,"o":"m 205 423 q 233 483 275 511 q 317 538 375 538 q 457 538 498 488 q 539 438 539 335 l 539 0 l 402 0 l 402 303 q 402 377 383 406 q 363 435 318 435 q 268 435 238 392 q 207 350 207 283 l 207 0 l 70 0 l 70 725 l 207 725 l 207 527 q 207 474 203 423 z"},"z":{"x_min":0,"x_max":600,"ha":600,"o":"m 67 0 l 67 97 l 346 429 l 87 429 l 87 528 l 502 528 l 502 430 l 225 100 l 526 100 l 526 0 z"},"B":{"x_min":0,"x_max":600,"ha":600,"o":"m 579 188 q 579 100 519 50 q 458 0 351 0 l 67 0 l 67 659 l 323 659 q 430 659 485 616 q 540 573 540 493 q 540 437 507 399 q 475 360 408 346 q 492 337 535 296 q 579 255 579 188 z m 395 474 q 395 552 313 552 l 211 552 l 211 396 l 314 396 q 395 396 395 474 z m 434 200 q 434 243 408 266 q 382 290 333 290 l 211 290 l 211 107 l 336 107 q 434 107 434 200 z"},"K":{"x_min":0,"x_max":600,"ha":600,"o":"m 430 0 l 272 272 l 210 203 l 210 0 l 66 0 l 66 659 l 210 659 l 210 366 l 423 659 l 591 659 l 366 376 l 600 0 z"},"R":{"x_min":0,"x_max":600,"ha":600,"o":"m 437 0 l 295 251 l 211 251 l 211 0 l 67 0 l 67 659 l 308 659 q 437 659 501 608 q 565 558 565 463 q 565 396 529 350 q 493 303 429 284 l 599 0 z m 420 458 q 420 503 390 525 q 359 547 293 547 l 211 547 l 211 363 l 297 363 q 420 363 420 458 z"},"T":{"x_min":0,"x_max":600,"ha":600,"o":"m 372 547 l 372 0 l 228 0 l 228 547 l 30 547 l 30 659 l 570 659 l 570 547 z"},"P":{"x_min":0,"x_max":600,"ha":600,"o":"m 558 451 q 558 385 528 336 q 498 286 442 259 q 385 232 307 232 l 210 232 l 210 0 l 66 0 l 66 659 l 301 659 q 426 659 492 606 q 558 553 558 451 z m 413 448 q 413 501 381 524 q 349 547 285 547 l 210 547 l 210 343 l 289 343 q 353 343 383 370 q 413 396 413 448 z"},"|":{"x_min":0,"x_max":600,"ha":600,"o":"m 236 -222 l 236 725 l 364 725 l 364 -222 z"},"t":{"x_min":0,"x_max":600,"ha":600,"o":"m 160 436 l 79 436 l 79 528 l 167 528 l 210 666 l 296 666 l 296 528 l 484 528 l 484 436 l 296 436 l 296 177 q 296 134 304 119 q 312 104 330 95 q 348 87 381 87 q 441 87 505 100 l 505 9 q 436 -2 407 -4 q 378 -6 347 -6 q 285 -6 243 10 q 202 27 180 63 q 159 99 159 164 z"},"M":{"x_min":0,"x_max":600,"ha":600,"o":"m 443 0 l 443 424 q 443 475 451 571 q 422 429 415 404 l 354 176 l 248 176 l 186 404 q 172 457 149 571 l 152 522 q 156 471 156 424 l 156 0 l 48 0 l 48 659 l 218 659 l 284 415 q 291 392 302 302 q 312 378 322 415 l 388 659 l 552 659 l 552 0 z"},"g":{"x_min":0,"x_max":600,"ha":600,"o":"m 301 -212 q 210 -212 153 -174 q 96 -137 83 -70 l 220 -54 q 227 -85 250 -104 q 273 -123 305 -123 q 354 -123 379 -87 q 405 -52 405 18 l 405 47 l 406 103 l 405 103 q 359 6 245 6 q 157 6 109 74 q 61 142 61 269 q 61 396 111 467 q 161 537 255 537 q 306 537 345 513 q 383 489 405 443 l 407 443 q 407 460 409 490 q 412 519 414 528 l 544 528 q 541 476 541 406 l 541 16 q 541 -95 479 -153 q 417 -212 301 -212 z m 406 271 q 406 352 378 397 q 351 442 304 442 q 255 442 229 398 q 204 354 204 269 q 204 184 230 142 q 256 101 303 101 q 353 101 379 147 q 406 193 406 271 z"},"j":{"x_min":0,"x_max":600,"ha":600,"o":"m 422 -6 q 422 -69 394 -115 q 367 -160 316 -184 q 265 -208 198 -208 q 159 -208 119 -201 q 79 -195 57 -187 l 57 -84 q 124 -101 186 -101 q 239 -101 262 -74 q 284 -48 284 5 l 284 436 l 111 436 l 111 528 l 422 528 z m 285 624 l 285 725 l 422 725 l 422 624 z"},"i":{"x_min":0,"x_max":600,"ha":600,"o":"m 388 93 l 560 93 l 560 0 l 58 0 l 58 93 l 250 93 l 250 436 l 109 436 l 109 528 l 388 528 z m 250 624 l 250 725 l 388 725 l 388 624 z"},"y":{"x_min":0,"x_max":600,"ha":600,"o":"m 159 -208 q 107 -208 70 -201 l 70 -104 l 95 -106 l 120 -107 q 149 -107 168 -98 q 188 -89 203 -67 q 218 -46 237 5 l 19 528 l 164 528 l 256 271 q 276 218 306 108 l 310 126 l 350 269 l 438 528 l 581 528 l 362 -28 q 323 -128 277 -168 q 230 -208 159 -208 z"},"@":{"x_min":0,"x_max":600,"ha":600,"o":"m 581 369 q 581 223 540 137 q 500 51 432 51 q 362 51 362 127 l 362 132 l 363 151 l 360 151 q 342 105 312 78 q 281 51 245 51 q 193 51 164 100 q 135 148 135 239 q 135 317 159 387 q 183 457 223 497 q 264 538 314 538 q 347 538 367 516 q 388 495 395 453 l 397 453 l 413 527 l 479 527 l 431 279 q 411 177 411 144 q 411 127 416 119 q 421 110 435 110 q 471 110 494 180 q 517 250 517 368 q 517 500 465 582 q 413 663 327 663 q 254 663 200 610 q 146 557 117 462 q 88 368 88 251 q 88 101 144 12 q 200 -76 295 -76 q 341 -76 383 -59 q 426 -42 475 1 l 510 -46 q 454 -94 401 -116 q 348 -138 290 -138 q 209 -138 148 -91 q 87 -43 54 46 q 21 135 21 251 q 21 391 59 499 q 97 607 167 666 q 236 725 328 725 q 405 725 462 680 q 519 636 550 555 q 581 475 581 369 z m 369 383 q 369 478 315 478 q 286 478 262 445 q 238 411 225 355 q 211 299 211 240 q 211 112 257 112 q 291 112 316 154 q 341 196 355 273 q 369 350 369 383 z"},".":{"x_min":0,"x_max":600,"ha":600,"o":"m 229 0 l 229 149 l 371 149 l 371 0 z"},"p":{"x_min":0,"x_max":600,"ha":600,"o":"m 201 528 q 204 518 206 487 q 208 457 208 442 l 210 442 q 234 489 273 514 q 312 539 365 539 q 453 539 503 465 q 553 391 553 265 q 553 136 502 63 q 452 -10 359 -10 q 307 -10 269 14 q 230 38 209 83 l 208 83 l 209 -3 l 209 -208 l 72 -208 l 72 413 q 72 462 68 528 z m 208 262 q 208 204 220 164 q 233 125 256 104 q 279 83 311 83 q 360 83 385 130 q 410 176 410 265 q 410 355 384 400 q 358 445 312 445 q 281 445 257 423 q 233 401 220 361 q 208 320 208 262 z"},"X":{"x_min":0,"x_max":600,"ha":600,"o":"m 449 0 l 301 241 l 152 0 l 0 0 l 224 347 l 20 659 l 172 659 l 301 449 l 429 659 l 580 659 l 371 347 l 600 0 z"},"*":{"x_min":0,"x_max":600,"ha":600,"o":"m 345 590 l 459 641 l 493 545 l 371 515 l 461 411 l 372 352 l 300 475 l 228 352 l 137 412 l 229 515 l 107 545 l 141 641 l 257 590 l 249 724 l 354 724 z"},"Y":{"x_min":0,"x_max":600,"ha":600,"o":"m 372 271 l 372 0 l 228 0 l 228 271 l 1 659 l 152 659 l 299 382 l 447 659 l 598 659 z"},"c":{"x_min":0,"x_max":600,"ha":600,"o":"m 305 -10 q 185 -10 119 62 q 54 133 54 261 q 54 392 120 465 q 186 538 307 538 q 400 538 461 491 q 522 444 538 362 l 399 355 q 394 396 370 420 q 347 444 304 444 q 198 444 198 267 q 198 84 306 84 q 345 84 371 109 q 397 133 404 182 l 542 176 q 534 122 503 79 q 471 37 420 13 q 369 -10 305 -10 z"},"!":{"x_min":0,"x_max":600,"ha":600,"o":"m 356 208 l 244 208 l 229 659 l 372 659 z m 229 0 l 229 132 l 369 132 l 369 0 z"},"/":{"x_min":0,"x_max":600,"ha":600,"o":"m 43 -10 l 444 725 l 556 725 l 157 -10 z"},"[":{"x_min":0,"x_max":600,"ha":600,"o":"m 182 -208 l 182 725 l 476 725 l 476 632 l 312 632 l 312 -114 l 476 -114 l 476 -208 z"},"6":{"x_min":0,"x_max":600,"ha":600,"o":"m 544 218 q 544 112 482 51 q 420 -10 313 -10 q 193 -10 127 80 q 61 169 61 328 q 61 501 127 585 q 193 669 316 669 q 404 669 454 630 q 505 592 526 511 l 396 493 q 378 561 313 561 q 258 561 227 508 q 195 455 195 353 q 217 389 256 409 q 295 428 345 428 q 435 428 490 371 q 544 314 544 218 z m 407 214 q 407 267 380 297 q 353 327 305 327 q 261 327 233 300 q 205 273 205 229 q 205 173 234 135 q 263 97 309 97 q 354 97 380 128 q 407 160 407 214 z"},"r":{"x_min":0,"x_max":600,"ha":600,"o":"m 528 414 q 473 423 424 423 q 348 423 303 366 q 259 308 259 214 l 259 0 l 122 0 l 122 342 q 122 379 115 430 q 109 480 97 528 l 229 528 q 247 465 251 417 l 253 417 q 278 483 319 511 q 361 538 427 538 q 478 538 528 530 z"},"2":{"x_min":0,"x_max":600,"ha":600,"o":"m 60 0 l 60 95 q 84 149 130 203 q 175 257 261 327 q 329 382 349 403 q 369 424 380 444 q 392 464 392 484 q 392 520 369 540 q 346 560 301 560 q 257 560 234 536 q 211 512 204 465 l 66 473 q 78 568 137 619 q 197 669 300 669 q 407 669 469 620 q 531 572 531 490 q 531 437 497 386 q 464 336 397 284 q 302 210 270 178 q 237 146 222 113 l 542 113 l 542 0 z"},"{":{"x_min":0,"x_max":600,"ha":600,"o":"m 351 -208 q 285 -208 246 -169 q 207 -131 207 -62 l 207 99 q 207 154 180 182 q 153 209 95 210 l 95 306 q 154 308 180 336 q 207 363 207 418 l 207 579 q 207 650 245 687 q 283 725 351 725 l 510 725 l 510 632 l 418 632 q 374 632 354 606 q 334 581 334 530 l 334 383 q 334 336 306 303 q 278 269 233 260 l 233 258 q 280 247 307 214 q 334 180 334 135 l 334 -12 q 334 -64 354 -89 q 374 -114 418 -114 l 510 -114 l 510 -208 z"},"9":{"x_min":0,"x_max":600,"ha":600,"o":"m 540 340 q 540 171 474 81 q 408 -10 283 -10 q 192 -10 141 29 q 89 68 68 152 l 197 170 q 216 98 285 98 q 340 98 372 149 q 404 200 405 302 q 387 266 344 245 q 302 224 253 224 q 164 224 110 284 q 56 344 56 446 q 56 550 119 609 q 183 669 296 669 q 415 669 478 588 q 540 507 540 340 z m 395 429 q 395 489 366 525 q 337 562 292 562 q 248 562 221 530 q 195 499 195 445 q 195 392 221 359 q 248 326 293 326 q 337 326 366 355 q 395 383 395 429 z"}," ":{"x_min":0,"x_max":600,"ha":600,"o":""},"I":{"x_min":0,"x_max":600,"ha":600,"o":"m 77 659 l 524 659 l 524 547 l 372 547 l 372 111 l 524 111 l 524 0 l 77 0 l 77 111 l 229 111 l 229 547 l 77 547 z"},"H":{"x_min":0,"x_max":600,"ha":600,"o":"m 389 0 l 389 280 l 211 280 l 211 0 l 67 0 l 67 659 l 211 659 l 211 399 l 389 399 l 389 659 l 533 659 l 533 0 z"},"4":{"x_min":0,"x_max":600,"ha":600,"o":"m 479 140 l 479 0 l 348 0 l 348 140 l 35 140 l 35 243 l 325 659 l 479 659 l 479 242 l 570 242 l 570 140 z m 348 443 q 348 469 349 500 q 351 531 352 540 q 339 512 306 460 l 150 242 l 348 242 z"},"~":{"x_min":0,"x_max":600,"ha":600,"o":"m 423 252 q 386 252 351 262 q 315 272 279 285 q 213 308 171 308 q 136 308 107 298 q 78 287 46 265 l 46 369 q 102 410 179 410 q 230 410 297 387 q 361 365 386 359 q 410 353 432 353 q 498 353 553 398 l 553 291 q 522 270 493 261 q 465 252 423 252 z"},"D":{"x_min":0,"x_max":600,"ha":600,"o":"m 561 334 q 561 173 486 87 q 411 0 271 0 l 66 0 l 66 659 l 242 659 q 402 659 482 578 q 561 498 561 334 z m 416 334 q 416 445 374 496 q 333 547 240 547 l 210 547 l 210 111 l 260 111 q 416 111 416 334 z"},"^":{"x_min":0,"x_max":600,"ha":600,"o":"m 450 251 l 291 618 l 133 251 l 22 251 l 213 688 l 370 688 l 562 251 z"},"0":{"x_min":0,"x_max":600,"ha":600,"o":"m 542 330 q 542 164 480 77 q 417 -10 298 -10 q 179 -10 118 77 q 57 164 57 330 q 57 501 116 585 q 176 669 302 669 q 424 669 483 584 q 542 499 542 330 z m 405 330 q 405 416 395 466 q 384 516 363 539 q 341 562 301 562 q 259 562 237 539 q 214 516 204 466 q 194 416 194 330 q 194 245 205 194 q 215 144 237 121 q 259 98 299 98 q 356 98 380 151 q 405 205 405 330 z m 247 271 l 247 393 l 352 393 l 352 271 z"},"F":{"x_min":0,"x_max":600,"ha":600,"o":"m 226 547 l 226 360 l 529 360 l 529 249 l 226 249 l 226 0 l 82 0 l 82 659 l 540 659 l 540 547 z"},"`":{"x_min":0,"x_max":600,"ha":600,"o":"m 335 578 l 169 691 l 169 712 l 295 712 l 418 593 l 418 578 z"},"k":{"x_min":0,"x_max":600,"ha":600,"o":"m 422 0 l 281 239 l 222 198 l 222 0 l 84 0 l 84 725 l 222 725 l 222 310 l 410 528 l 558 528 l 372 322 l 572 0 z"},"u":{"x_min":0,"x_max":600,"ha":600,"o":"m 203 528 l 203 232 q 203 165 225 129 q 247 93 287 93 q 331 93 360 136 q 388 179 388 245 l 388 528 l 525 528 l 525 118 q 525 51 529 0 l 398 0 q 393 70 393 105 l 390 105 q 338 -10 230 -10 q 150 -10 108 41 q 66 92 66 193 l 66 528 z"},"]":{"x_min":0,"x_max":600,"ha":600,"o":"m 124 -208 l 124 -114 l 288 -114 l 288 632 l 124 632 l 124 725 l 418 725 l 418 -208 z"},"U":{"x_min":0,"x_max":600,"ha":600,"o":"m 292 -10 q 172 -10 118 56 q 63 121 63 258 l 63 659 l 207 659 l 207 259 q 207 174 227 138 q 247 103 296 103 q 347 103 370 141 q 393 178 393 264 l 393 659 l 537 659 l 537 265 q 537 125 477 58 q 417 -10 292 -10 z"},"o":{"x_min":0,"x_max":600,"ha":600,"o":"m 555 265 q 555 133 489 62 q 422 -10 298 -10 q 178 -10 111 62 q 45 133 45 265 q 45 396 111 467 q 177 538 301 538 q 555 538 555 265 z m 412 265 q 412 358 387 401 q 362 444 303 444 q 242 444 216 401 q 189 358 189 265 q 189 170 216 127 q 243 84 296 84 q 357 84 384 127 q 412 169 412 265 z"},"N":{"x_min":0,"x_max":600,"ha":600,"o":"m 365 0 l 178 493 q 191 370 191 320 l 191 0 l 66 0 l 66 659 l 230 659 l 422 152 q 409 267 409 331 l 409 659 l 534 659 l 534 0 z"},"+":{"x_min":0,"x_max":600,"ha":600,"o":"m 354 278 l 354 79 l 244 79 l 244 278 l 49 278 l 49 387 l 244 387 l 244 586 l 354 586 l 354 387 l 551 387 l 551 278 z"},"G":{"x_min":0,"x_max":600,"ha":600,"o":"m 551 90 q 432 -10 310 -10 q 183 -10 111 80 q 39 169 39 333 q 39 669 312 669 q 399 669 455 624 q 511 578 537 486 l 403 459 q 377 556 313 556 q 247 556 216 503 q 185 450 185 333 q 185 224 218 165 q 250 105 317 105 q 343 105 371 115 q 398 125 419 142 l 419 256 l 285 256 l 285 363 l 551 363 z"},"q":{"x_min":0,"x_max":600,"ha":600,"o":"m 532 528 q 528 462 528 413 l 528 -208 l 391 -208 l 391 -3 l 392 83 l 391 83 q 371 39 330 15 q 290 -10 236 -10 q 145 -10 96 62 q 47 134 47 265 q 47 390 100 464 q 152 539 240 539 q 342 539 390 442 l 392 442 q 392 464 395 493 q 397 522 399 528 z m 393 262 q 393 320 380 361 q 367 401 343 423 q 319 445 289 445 q 242 445 216 400 q 190 355 190 265 q 190 176 216 130 q 241 83 290 83 q 337 83 365 130 q 393 177 393 262 z"},"d":{"x_min":0,"x_max":600,"ha":600,"o":"m 399 0 q 397 7 394 37 q 392 66 392 86 l 390 86 q 364 34 326 12 q 288 -10 235 -10 q 148 -10 98 63 q 47 137 47 263 q 47 393 98 465 q 148 537 241 537 q 293 537 332 513 q 370 490 391 444 l 392 444 l 391 531 l 391 725 l 528 725 l 528 115 q 528 66 532 0 z m 393 267 q 393 351 365 397 q 338 444 290 444 q 241 444 216 398 q 190 353 190 263 q 190 173 216 129 q 242 84 289 84 q 319 84 343 106 q 367 127 380 168 q 393 208 393 267 z"},"1":{"x_min":0,"x_max":600,"ha":600,"o":"m 73 0 l 73 102 l 263 102 l 263 537 q 244 497 187 470 q 130 442 67 442 l 67 547 q 135 547 189 577 q 243 606 270 659 l 400 659 l 400 102 l 558 102 l 558 0 z"},"5":{"x_min":0,"x_max":600,"ha":600,"o":"m 548 222 q 548 153 518 101 q 487 48 429 19 q 372 -10 293 -10 q 190 -10 128 37 q 65 83 51 172 l 188 183 q 199 139 226 119 q 253 99 295 99 q 348 99 377 130 q 407 162 407 219 q 407 270 378 300 q 350 331 298 331 q 241 331 205 286 l 71 286 l 95 659 l 508 659 l 508 557 l 219 557 l 208 397 q 258 441 333 441 q 431 441 490 381 q 548 321 548 222 z"}}}
